<?xml version="1.0" standalone="no"?>
<!DOCTYPE svg PUBLIC "-//W3C//DTD SVG 20010904//EN"
 "http://www.w3.org/TR/2001/REC-SVG-20010904/DTD/svg10.dtd">
<svg version="1.0" xmlns="http://www.w3.org/2000/svg"
 width="26" height="26" viewBox="0 0 512.000000 512.000000"
 preserveAspectRatio="xMidYMid meet">

<g transform="translate(0.000000,512.000000) scale(0.100000,-0.100000)"
fill="#000000" stroke="none">
<path d="M2525 3749 c-1353 -280 -2470 -514 -2481 -520 -24 -12 -44 -49 -44
-79 0 -10 10 -30 23 -44 12 -14 339 -192 727 -396 388 -205 707 -374 709 -376
5 -4 198 -1066 241 -1319 16 -94 25 -124 41 -137 51 -43 58 -39 578 308 l488
325 501 -325 c539 -350 543 -353 590 -303 23 25 1222 3266 1222 3305 0 39 -43
72 -92 71 -24 0 -1150 -230 -2503 -510z m1855 192 c-407 -214 -2837 -1451
-2845 -1449 -21 5 -1185 621 -1185 627 0 7 4012 839 4045 840 14 0 10 -5 -15
-18z m467 -23 c-2 -7 -237 -645 -522 -1418 -284 -773 -520 -1410 -524 -1416
-7 -13 -1503 955 -1500 971 1 11 2528 1874 2543 1875 4 0 6 -6 3 -12z m-738
-312 c-2 -2 -461 -340 -1019 -750 -558 -410 -1020 -756 -1026 -768 -7 -13 -63
-188 -125 -391 -62 -202 -116 -364 -119 -360 -9 10 -185 1001 -179 1007 5 5
2462 1265 2468 1266 2 0 2 -2 0 -4z m-1684 -1846 c121 -78 221 -143 223 -145
1 -1 -151 -104 -339 -229 -188 -125 -343 -225 -346 -223 -9 10 221 748 232
744 6 -3 109 -69 230 -147z"/>
</g>
</svg>
