<svg version="1.0" xmlns="http://www.w3.org/2000/svg"
 width="24" height="24" viewBox="0 0 99.000000 92.000000"
 preserveAspectRatio="xMidYMid meet">

<g transform="translate(0.000000,92.000000) scale(0.100000,-0.100000)"
fill="#000000" stroke="none">
<path d="M476 619 c-42 -7 -58 -16 -108 -66 -32 -31 -61 -66 -64 -75 -4 -13
15 -41 68 -98 l73 -79 72 0 c107 -1 103 -6 103 114 0 57 -4 106 -9 110 -6 3
-17 19 -25 37 -12 23 -13 34 -5 45 7 7 10 16 7 18 -3 3 -11 -1 -18 -10 -11
-13 -15 -13 -29 -2 -12 10 -29 11 -65 6z m62 -26 c2 -7 -4 -13 -13 -13 -14 0
-15 -3 -5 -15 13 -16 31 -20 29 -7 -3 19 2 24 14 13 10 -8 12 -24 7 -57 -6
-38 -17 -55 -66 -105 -32 -32 -63 -59 -69 -59 -6 0 -37 27 -70 60 l-59 60 64
65 c35 35 73 66 84 68 37 8 79 2 84 -10z m70 -182 l-3 -96 -75 -3 c-41 -1 -81
2 -88 6 -10 7 7 29 62 82 61 59 76 79 76 103 0 25 2 28 15 17 13 -10 15 -32
13 -109z"/>
<path d="M455 539 c-27 -74 -43 -129 -37 -129 9 0 54 132 47 138 -3 3 -7 -1
-10 -9z"/>
<path d="M364 489 c-10 -17 23 -46 37 -32 7 7 9 19 6 27 -7 18 -33 21 -43 5z
m36 -7 c0 -13 -12 -22 -22 -16 -10 6 -1 24 13 24 5 0 9 -4 9 -8z"/>
<path d="M474 489 c-10 -17 23 -46 37 -32 7 7 9 19 6 27 -7 18 -33 21 -43 5z
m36 -7 c0 -13 -12 -22 -22 -16 -10 6 -1 24 13 24 5 0 9 -4 9 -8z"/>
</g>
</svg>
